<svg width="80" height="80" viewBox="0 0 80 80" fill="none" xmlns="http://www.w3.org/2000/svg">
<g id="openmoji:github">
<path id="Vector" d="M30.1267 69.9845C30.1267 69.9845 40.3156 73.2322 50.0456 69.9389" stroke="white" stroke-width="2" stroke-linecap="round" stroke-linejoin="round"/>
<path id="Vector_2" d="M39.8889 70.1378C56.5962 70.1378 70.14 56.5939 70.14 39.8867C70.14 23.1794 56.5962 9.63556 39.8889 9.63556C23.1817 9.63556 9.63782 23.1794 9.63782 39.8867C9.63782 56.5939 23.1817 70.1378 39.8889 70.1378Z" fill="white"/>
<path id="Vector_3" d="M32.2711 68.4567C32.2711 67.4267 32.2322 64.0344 32.2322 59.83C32.2322 56.89 33.2033 54.9711 34.3022 53.9944C27.3833 53.1922 20.1033 50.49 20.1033 38.4C20.1033 34.9578 21.3211 32.1422 23.3111 29.9389C22.9933 29.1389 21.9177 25.9322 23.62 21.59C23.62 21.59 26.2366 20.7411 32.1944 24.8211C37.304 23.4131 42.6993 23.4131 47.8089 24.8211C53.76 20.7411 56.3766 21.59 56.3766 21.59C58.0789 25.9322 57.01 29.14 56.6855 29.9389C58.6811 32.1422 59.8866 34.9544 59.8866 38.4C59.8866 50.5167 52.5989 53.1856 45.6466 53.9644C46.7722 54.9445 47.7677 56.8656 47.7677 59.8122C47.7677 64.0256 47.7289 67.4233 47.7289 68.4567C47.7289 69.3033 48.29 70.28 49.8733 69.9778C62.2577 65.8022 71.1811 53.9822 71.1811 40.0533C71.1811 22.6333 57.2177 8.51111 39.9955 8.51111C22.7733 8.51111 8.81775 22.63 8.81775 40.0533C8.81775 53.9878 17.7511 65.8111 30.1533 69.98C31.7033 70.2711 32.2711 69.2967 32.2711 68.4567Z" fill="#D0CFCE"/>
<g id="Group">
<path id="Vector_4" d="M32.2711 68.4567C32.2711 67.4267 32.2322 64.0344 32.2322 59.83C32.2322 56.89 33.2033 54.9711 34.3022 53.9944C27.3833 53.1922 20.1033 50.49 20.1033 38.4C20.1033 34.9578 21.3211 32.1422 23.3111 29.9389C22.9933 29.1389 21.9177 25.9322 23.62 21.59C23.62 21.59 26.2366 20.7411 32.1944 24.8211C37.304 23.4131 42.6993 23.4131 47.8089 24.8211C53.76 20.7411 56.3766 21.59 56.3766 21.59C58.0789 25.9322 57.01 29.14 56.6855 29.9389C58.6811 32.1422 59.8866 34.9544 59.8866 38.4C59.8866 50.5167 52.5989 53.1856 45.6466 53.9644C46.7722 54.9444 47.7677 56.8656 47.7677 59.8122C47.7677 64.0256 47.7289 67.4233 47.7289 68.4567C47.7289 69.3033 48.29 70.28 49.8733 69.9778C62.2577 65.8022 71.1811 53.9822 71.1811 40.0533C71.1811 22.6333 57.2177 8.51111 39.9955 8.51111C22.7733 8.51111 8.81775 22.63 8.81775 40.0533C8.81775 53.9878 17.7511 65.8111 30.1533 69.98C31.7033 70.2711 32.2711 69.2967 32.2711 68.4567Z" stroke="black" stroke-width="2" stroke-linecap="round" stroke-linejoin="round"/>
<path id="Vector_5" d="M18.1 53.4333C20.9533 54.3 22.0778 55.25 23.4211 57.5011C24.76 59.7522 26.3322 62.2644 32.2355 60.8333" stroke="black" stroke-width="2" stroke-linecap="round" stroke-linejoin="round"/>
</g>
</g>
</svg>
